<?xml version="1.0" encoding="UTF-8" standalone="no"?>
<!-- Generator: Adobe Illustrator 16.0.3, SVG Export Plug-In . SVG Version: 6.00 Build 0)  -->

<svg
   version="1.1"
   id="Ebene_2"
   x="0px"
   y="0px"
   width="566.92999"
   height="65.438004"
   viewBox="0 0 566.93 65.438"
   enable-background="new 0 0 566.93 65.438"
   xml:space="preserve"
   sodipodi:docname="gbc.svg"
   xmlns:inkscape="http://www.inkscape.org/namespaces/inkscape"
   xmlns:sodipodi="http://sodipodi.sourceforge.net/DTD/sodipodi-0.dtd"
   xmlns="http://www.w3.org/2000/svg"
   xmlns:svg="http://www.w3.org/2000/svg"><defs
   id="defs16" /><sodipodi:namedview
   id="namedview14"
   pagecolor="#ffffff"
   bordercolor="#000000"
   borderopacity="0.25"
   inkscape:showpageshadow="2"
   inkscape:pageopacity="0.0"
   inkscape:pagecheckerboard="0"
   inkscape:deskcolor="#d1d1d1"
   showgrid="false" />
<path
   id="path5256"
   fill="#2d288b"
   d="m 437.047,26.359 c -1.192,-3.612 -4.341,-7.049 -4.341,-7.049 0,0 -4.731,-6.146 -14.024,-8.242 -7.956,-1.664 -14.208,1.845 -14.208,1.845 0,0 -5.677,2.275 -9.943,6.978 -6.796,6.542 -8.749,16.088 -8.749,16.088 0,0 -2.604,8.314 1.521,14.896 l 4.482,5.422 c 6.326,5.279 13.087,5.819 13.087,5.819 0,0 5.46,1.229 11.824,-0.434 5.563,-1.122 9.614,-3.869 9.614,-3.869 0,0 9.222,-5.097 11.749,-15.509 z M 422.69,43.676 c 0,0 -3.686,6.437 -11.782,5.675 -9.51,-0.975 -10.628,-9.325 -10.628,-9.325 0,0 -1.305,-6.146 4.553,-11.498 5.931,-4.987 12.113,-4.229 12.113,-4.229 0,0 4.154,0.397 6.292,7.268 2.744,8.747 -0.548,12.109 -0.548,12.109" />
<path
   id="path5262"
   fill="#639d01"
   d="m 467.773,43.787 c -3.044,-0.672 -7.917,0.575 -7.917,0.575 0,0 -6.796,2.493 -7.845,2.458 -0.396,-0.577 -1.263,-11.677 -1.012,-16.123 0.146,-7.846 -0.509,-14.243 -0.509,-14.243 0,0 -0.323,-7.558 -4.373,-12.039 -4.771,-4.811 -8.101,-2.747 -10.016,-1.593 -4.591,4.122 -2.457,9.146 -2.457,9.146 l 2.389,6.762 c 0,0 1.155,2.894 1.012,7.628 l 1.012,15.944 c 0,2.133 1.737,16.484 1.737,16.484 0,0 0.176,4.665 4.661,5.496 4.593,0.759 9.109,-1.52 11.025,-2.423 1.917,-0.901 4.447,-1.697 4.447,-1.697 0,0 2.098,-0.471 4.194,-0.65 4.916,-0.472 6.688,-1.338 6.688,-1.338 0,0 1.901,-0.286 3.184,-2.099 1.278,-1.81 2.826,-10.302 -6.22,-12.288" />
<path
   id="path5264"
   fill="#94012c"
   d="m 387.3,50.872 c -3.229,-0.969 -6.938,-0.327 -6.938,-0.327 0,0 -10.485,1.011 -15.945,-0.146 -8.457,-1.48 -8.174,-10.592 -8.174,-10.592 0,0 -0.283,-6.039 4.813,-14.208 6.289,-10.088 13.23,-11.895 13.23,-11.895 0,0 1.733,-0.649 3.36,0.217 1.013,5.854 6.688,5.818 6.688,5.818 0,0 8.171,0.545 7.771,-9.359 -0.938,-8.138 -8.782,-9.257 -12.074,-10.018 -9.864,-1.771 -16.269,3.508 -16.269,3.508 0,0 -6.614,3.578 -14.531,16.051 -5.391,7.735 -6.04,13.811 -6.04,13.811 0,0 -0.649,1.446 -0.396,7.883 -0.145,5.023 1.737,8.676 1.737,8.676 0,0 2.854,8.645 11.891,12.187 5.497,2.276 13.525,2.241 13.525,2.241 0,0 7.771,-0.108 13.733,-0.435 3.255,0.252 4.812,-1.447 4.812,-1.447 0,0 3.648,-2.385 3.289,-6.543 0,0 -0.708,-4.295 -4.482,-5.422" />
<path
   id="path5266"
   fill="#2e3192"
   d="m 152.788,62.488 h -11.956 l -1.598,-36.012 -15.545,36.012 h -7.975 L 109.072,29.931 98.705,62.488 H 78.374 L 75.317,45.085 H 61.495 l -7.84,17.403 H 41.16 L 66.812,4.288 H 81.561 L 89.4,51.328 104.685,4.287 h 11.823 l 5.848,31.893 13.56,-31.893 h 14.351 z M 73.515,33.781 71.326,22.491 66.277,33.781 h 7.238" />
<path
   id="path5268"
   fill="#2e3192"
   d="M 187.072,62.488 189.07,50 h -20.866 l 1.654,-10.365 h 18.148 L 190,27.14 h -18.341 l 1.594,-10.366 h 20.861 l 1.995,-12.486 h -33.087 l -9.305,58.2 h 33.355" />
<path
   id="path5270"
   fill="#2e3192"
   d="m 342.419,4.287 h -13.954 l -11.827,19 -7.438,-19 h -13.688 l 14.084,30.692 -4.339,27.508 h 11.963 l 3.671,-24.315 21.528,-33.885" />
<path
   id="path5272"
   fill="#2e3192"
   d="M 253.306,28.382 C 257.02,12.289 270.775,1.728 284.023,4.791 297.279,7.854 305.012,23.377 301.301,39.47 297.587,55.559 283.834,66.122 270.58,63.059 257.327,59.996 249.595,44.469 253.306,28.382 Z m 18.099,23.023 c 6.327,2.83 14.078,-2.721 17.302,-12.398 3.223,-9.685 0.714,-19.828 -5.614,-22.659 -6.328,-2.832 -14.069,2.722 -17.298,12.404 -3.227,9.683 -0.713,19.821 5.61,22.653" />
<path
   id="path5276"
   fill="#2e3192"
   d="m 224.595,16.877 c 0,0 0.265,0 7.786,0 8.439,0 6.727,10.812 -1.316,10.812 -6.596,0 -8.313,0 -8.313,0 z m -3.689,22.679 c 0,0 2.505,0 10.021,0 9.499,0 9.233,11.605 -1.317,11.605 -6.59,0 -10.55,0 -10.55,0 z m -6.595,-34.949 -9.229,57.767 c 0,0 19.122,0 26.903,0 11.076,0 27.276,-16.326 12.531,-29.672 15.162,-15.692 0.126,-27.955 -7.916,-28.095 -6.461,-0.104 -22.416,0 -22.416,0 h 0.127" />
<path
   id="path5274"
   fill="#2e3192"
   d="M 15.648,9.468 C 4.252,16.521 -1.228,27.271 0.231,41.89 1.928,58.847 23.887,69.53 42.49,58.769 c 1.629,-0.94 0.992,-0.792 1.595,-1.331 L 47.808,33.782 H 25.614 l -1.702,10.897 h 9.276 l -1.065,5.85 c -5.314,2.125 -14.352,1.327 -18.204,-5.582 -2.44,-4.376 -4.703,-14.142 5.583,-23.124 8.369,-7.309 22.856,-8.633 31.23,-4.78 0,0 1.062,-6.111 1.857,-11.829 C 36.511,-0.366 24.018,4.287 15.648,9.468" />
<path
   id="path5258"
   fill="#c8a601"
   d="m 518.642,24.443 c -6.325,-10.339 -17.46,-11.894 -17.46,-11.894 0,0 -3.543,-1.194 -11.133,-0.183 -14.246,2.713 -19.2,13.667 -19.2,13.667 0,0 -5.099,8.024 -3.074,17.75 l 6.224,12.292 c 4.59,4.302 6.469,4.302 6.757,4.558 6.076,2.747 13.125,1.156 13.125,1.156 0,0 8.895,-0.867 17.029,-7.194 6.506,-4.771 9.326,-11.786 9.326,-11.786 l 0.863,-9.41 z m -17.316,21.113 c -10.231,6.146 -16.668,-0.579 -16.668,-0.579 0,0 -2.855,-1.88 -3.47,-7.593 -0.438,-6.615 6.146,-10.05 6.146,-10.05 0,0 3.471,-2.134 7.81,-1.808 4.339,0.324 5.708,0.035 9.219,2.64 3.324,3.002 3.107,5.206 3.107,5.206 0,0 1.195,7.449 -6.144,12.184" />
<path
   id="path5260"
   fill="#00766a"
   d="m 520.234,42.809 c 0,0 0.218,5.783 -0.688,7.194 -1.229,2.639 -1.047,5.206 -1.047,5.206 0,0 -0.835,7.809 8.209,9.107 6.214,-0.035 6.971,-5.206 7.081,-7.411 0.36,-1.732 0.217,-9.798 0.217,-9.798 l 8.063,6.581 c 0,0 5.856,4.917 9.295,7.772 3.581,2.818 4.479,3.325 4.479,3.325 0,0 0.763,0.901 3.506,0.577 2.211,0.038 4.234,-1.952 4.234,-1.952 0,0 2.563,-1.875 3.214,-5.167 0.795,-3.905 -2.24,-5.821 -2.24,-5.821 0,0 -11.205,-9.039 -18.798,-15.258 5.097,-2.783 7.556,-4.699 7.556,-4.699 0,0 7.088,-4.698 8.604,-11.896 2.099,-7.918 -3.867,-11.024 -3.867,-11.024 0,0 -3.726,-2.676 -6.87,-4.087 -7.92,-3.868 -15.293,-3.073 -15.293,-3.073 0,0 -10.483,-0.722 -17.316,7.703 -3.144,4.083 -1.19,9.436 -1.19,9.436 0,0 0.388,0.857 1.263,4.916 1.753,8.167 1.588,18.369 1.588,18.369 z m 13.738,-16.053 -0.688,-9.435 c 0,0 6.614,-0.146 9.363,0.324 5.426,0.831 5.134,2.352 5.134,2.352 0,0 -0.181,1.915 -4.303,3.796 -4.48,2.17 -9.506,2.963 -9.506,2.963" />
<path
   style="opacity:0.501061;fill:#ffffff;stroke:#214eed;stroke-width:0.0380428;stroke-linejoin:round;paint-order:fill markers stroke"
   d="M 23.428776,62.593669 C 19.480978,62.175444 16.934361,61.396723 13.305097,59.49799 7.4115997,56.414665 3.3804236,51.832795 1.4068502,45.974331 -0.59960298,40.018266 0.36239149,28.884231 3.4016668,22.886511 7.7687066,14.268572 17.333162,7.1467733 28.632385,4.099441 33.763658,2.7155678 42.821105,2.7255544 48.00058,4.120796 c 2.032073,0.5473975 3.837109,1.1489741 4.011192,1.336837 0.270888,0.2923291 -0.212255,4.1748772 -1.208317,9.710018 l -0.266606,1.481533 -1.95563,-0.758666 c -1.491949,-0.578785 -3.605641,-0.76196 -8.914677,-0.772557 -6.436755,-0.01285 -7.237596,0.08316 -10.670532,1.279185 -4.911095,1.711017 -7.291475,3.145054 -10.807453,6.510844 -2.052056,1.9644 -3.431668,3.829983 -4.639362,6.273586 -1.602703,3.242849 -1.71833,3.76151 -1.711527,7.677288 0.0061,3.526552 0.198153,4.60882 1.198351,6.753958 2.120227,4.54728 5.296076,6.917825 10.542427,7.869167 2.036105,0.369219 3.637693,0.383216 5.45287,0.04766 3.266857,-0.603911 3.281209,-0.61454 3.639457,-2.695242 0.165235,-0.959689 0.414261,-2.319008 0.553391,-3.020712 l 0.252964,-1.275824 h -4.697246 -4.697246 l 0.280807,-1.507793 c 0.154443,-0.829286 0.538016,-3.177962 0.852383,-5.219282 l 0.571576,-3.711489 10.767043,-0.124534 c 10.036859,-0.11609 10.766589,-0.0689 10.760307,0.695904 -0.0037,0.451241 -0.728788,5.401626 -1.611292,11.000856 -0.882507,5.59923 -1.557983,10.22408 -1.501057,10.277442 0.05692,0.05337 5.197845,-11.474607 11.424267,-25.617717 L 66.947431,4.6165143 74.166292,4.743922 81.385157,4.8713297 85.193716,27.725966 c 2.094709,12.57005 3.905169,23.112999 4.023245,23.428777 0.292795,0.783008 -0.166998,2.108706 8.168046,-23.550541 l 7.384463,-22.7328723 5.83925,-0.129845 c 3.21159,-0.071415 5.83926,0.023138 5.83926,0.2101167 0,0.7973126 5.64597,31.0048686 5.82925,31.1881466 0.30511,0.30511 0.0875,0.786756 6.68513,-14.798684 3.40251,-8.037694 6.3988,-15.0889692 6.65843,-15.6694999 0.46475,-1.0391636 0.5804,-1.0535335 7.46731,-0.9278723 l 6.99525,0.1276379 0.98894,23.4287763 c 0.54392,12.885827 1.11038,25.777453 1.25881,28.648058 l 0.26987,5.219282 h -5.78219 c -5.68341,0 -5.78239,-0.01781 -5.79446,-1.043856 -0.007,-0.574121 -0.31525,-7.306995 -0.68556,-14.961942 -0.3703,-7.654946 -0.67794,-15.222905 -0.68363,-16.817686 -0.006,-1.59478 -0.16692,-2.899568 -0.3583,-2.899527 -0.19137,4e-5 -3.79267,8.032584 -8.0029,17.850097 l -7.65494,17.850023 -3.8096,0.01146 -3.80958,0.01146 -0.44535,-1.739761 c -0.24494,-0.956868 -1.75753,-8.249522 -3.36131,-16.205896 -1.60377,-7.956375 -3.04134,-14.388641 -3.1946,-14.293925 -0.15325,0.09472 -2.56317,7.385591 -5.35538,16.201943 l -5.076735,16.029701 -10.015227,0.0042 -10.015226,0.0042 -0.795716,-4.523378 c -0.43764,-2.487858 -1.125347,-6.35529 -1.528238,-8.594287 l -0.732523,-4.070915 -7.184835,0.127455 -7.184836,0.127455 -3.772603,8.456809 -3.772604,8.456809 -5.915186,0.01002 c -3.253352,0.0055 -5.907788,-0.146552 -5.898747,-0.337926 0.009,-0.191374 0.314801,-0.86988 0.679465,-1.507793 1.177588,-2.059974 0.753616,-2.171917 -2.409103,-0.63607 -5.113197,2.482583 -10.98413,3.513843 -16.61228,2.917602 z M 73.746513,33.519388 c -0.0505,-0.908668 -2.207932,-10.84875 -2.395325,-11.036145 -0.117492,-0.117491 -1.378782,2.395866 -2.802861,5.585239 l -2.589242,5.798858 h 3.903383 c 2.146859,0 3.894679,-0.156578 3.884045,-0.347952 z"
   id="path314" /><path
   style="opacity:0.501061;fill:#ffffff;stroke:#214eed;stroke-width:0.0380428;stroke-linejoin:round;paint-order:fill markers stroke"
   d="m 154.25033,60.659653 c 0.14607,-0.829285 2.13898,-13.303369 4.4287,-27.720185 2.28972,-14.416817 4.27136,-26.682129 4.40365,-27.25625 l 0.24053,-1.0438564 h 16.22892 c 8.92591,0 16.22755,0.1565785 16.22585,0.3479522 -0.002,0.1913736 -0.41785,2.7488217 -0.92479,5.6832182 -0.50695,2.934396 -0.92311,5.491844 -0.9248,5.683218 -0.002,0.191373 -4.68384,0.347952 -10.40478,0.347952 h -10.4017 l -0.2599,1.275824 c -0.49714,2.440363 -1.19864,7.313549 -1.20212,8.350851 l -0.004,1.043857 h 9.08362 9.08362 l -0.264,1.275824 c -0.31947,1.543917 -1.66099,9.953574 -1.66361,10.428756 -0.001,0.18598 -4.12454,0.394751 -9.16337,0.463936 l -9.1615,0.125792 -0.55829,3.711489 c -0.30706,2.041319 -0.68242,4.389996 -0.83415,5.219282 l -0.27585,1.507793 h 10.49644 10.49645 l -0.2587,1.275824 c -0.28039,1.382753 -1.67077,10.161868 -1.67077,10.549551 0,0.130334 -7.42084,0.236965 -16.49075,0.236965 h -16.49076 z"
   id="path316" /><path
   style="opacity:0.501061;fill:#ffffff;stroke:#214eed;stroke-width:0.0380428;stroke-linejoin:round;paint-order:fill markers stroke"
   d="m 205.51126,61.843298 c -0.007,-0.204465 2.02138,-13.173968 4.50718,-28.821116 l 4.51964,-28.4493593 12.07854,0.1492535 c 11.99463,0.1482166 12.09702,0.1579176 14.73958,1.396393 3.29511,1.5443077 7.02694,5.2050048 8.29589,8.1377578 2.01391,4.654456 0.96962,10.173089 -2.88995,15.272288 -1.24728,1.647885 -2.26778,3.116374 -2.26778,3.263308 0,0.146935 0.72166,1.065942 1.60368,2.042239 2.94091,3.255231 3.72056,5.289275 3.71951,9.70381 -8.4e-4,3.442134 -0.17045,4.267201 -1.33429,6.490058 -1.82481,3.485265 -6.01367,7.460061 -9.85666,9.352958 l -3.15615,1.55459 -14.97337,0.139789 c -8.23535,0.07688 -14.97897,-0.02751 -14.98582,-0.231969 z m 28.88517,-11.44554 c 4.68702,-2.314148 4.6557,-8.525783 -0.0528,-10.476119 -0.76266,-0.315906 -3.66177,-0.465031 -7.48967,-0.385255 l -6.24536,0.130158 -0.7812,4.87133 c -0.42966,2.679231 -0.79657,5.360213 -0.81535,5.957737 l -0.0342,1.086405 6.84306,-0.164442 c 5.47703,-0.131619 7.18889,-0.335194 8.5755,-1.019814 z m 0.22394,-23.336345 c 2.07109,-0.982797 3.37493,-3.106649 3.37715,-5.501137 0.004,-3.901702 -1.93864,-4.949486 -8.82327,-4.75986 l -4.83796,0.133254 -0.79463,4.639362 c -1.19018,6.948773 -1.66057,6.263138 4.29687,6.263138 3.84888,0 5.56145,-0.195644 6.78184,-0.774757 z"
   id="path318" /><path
   style="opacity:0.501061;fill:#ffffff;stroke:#214eed;stroke-width:0.0380428;stroke-linejoin:round;paint-order:fill markers stroke"
   d="m 271.86659,63.036807 c -8.62561,-1.398193 -16.13333,-9.274474 -18.35373,-19.254729 -1.07855,-4.847895 -0.72649,-13.515603 0.72243,-17.786363 2.94373,-8.676745 8.40601,-15.526771 15.09362,-18.9283121 5.79227,-2.9461427 13.03791,-3.2232342 18.39217,-0.7033626 12.42136,5.8458587 17.70542,22.9369137 11.73504,37.9564657 -5.04268,12.685762 -16.56622,20.503151 -27.58953,18.716301 z m 7.90769,-12.014425 c 4.02594,-2.053882 7.75529,-7.217937 9.54108,-13.211585 1.25274,-4.204609 1.12355,-11.232296 -0.27293,-14.845957 -2.52297,-6.528699 -8.53809,-9.282485 -14.04992,-6.432207 -2.11974,1.096162 -5.72068,4.636617 -7.08686,6.967834 -6.28932,10.731917 -4.05694,25.883446 4.19291,28.457892 2.00621,0.626054 5.43295,0.208196 7.67572,-0.935977 z"
   id="path320" /><path
   style="opacity:0.501061;fill:#ffffff;stroke:#214eed;stroke-width:0.0380428;stroke-linejoin:round;paint-order:fill markers stroke"
   d="m 305.73393,61.531946 c 0,-0.365233 0.93117,-6.499128 2.06926,-13.630883 l 2.06926,-12.966826 -6.90141,-15.031453 -6.90142,-15.0314543 6.30314,-0.1295916 c 3.46673,-0.071275 6.46035,0.03311 6.65247,0.2319681 0.19213,0.1988578 1.84869,4.2238283 3.68124,8.9443788 1.83254,4.72055 3.47925,8.851798 3.65934,9.18055 0.20582,0.375711 2.53198,-2.941512 6.2626,-8.930771 l 5.93517,-9.5285024 h 6.67182 6.67182 L 338.2845,10.32258 c -1.9925,3.12577 -6.73896,10.575488 -10.54768,16.55493 l -6.92496,10.871712 -1.87285,12.093128 -1.87284,12.093128 -5.66612,0.130264 c -4.66716,0.107299 -5.66612,0.01319 -5.66612,-0.533796 z"
   id="path322" /></svg>
