<?xml version="1.0" encoding="UTF-8" standalone="no"?>
<svg
   version="1.1"
   viewBox="0 0 600 197"
   id="svg336"
   sodipodi:docname="j2me-logo.svg"
   inkscape:version="1.3 (0e150ed6c4, 2023-07-21)"
   xmlns:inkscape="http://www.inkscape.org/namespaces/inkscape"
   xmlns:sodipodi="http://sodipodi.sourceforge.net/DTD/sodipodi-0.dtd"
   xmlns:xlink="http://www.w3.org/1999/xlink"
   xmlns="http://www.w3.org/2000/svg"
   xmlns:svg="http://www.w3.org/2000/svg">
  <defs
     id="defs340">
    <clipPath
       id="SVGID_00000150785495286499714270000009982772242062153606_">
      <use
         xlink:href="#SVGID_1_"
         style="overflow:visible"
         id="use7" />
    </clipPath>
    <rect
       id="SVGID_1_"
       x="124.12"
       y="110.1"
       width="934.47998"
       height="611.52002" />
    <filter
       style="color-interpolation-filters:sRGB;"
       inkscape:label="Invert"
       id="filter1"
       x="7.9241141e-06"
       y="0"
       width="0.99999208"
       height="0.99984423">
      <feColorMatrix
         values="0 0 0 0 0 0 0 0 0 0 0 0 0 0 0 -0.21 -0.72 -0.072 1 0 "
         id="feColorMatrix1"
         result="fbSourceGraphic" />
      <feColorMatrix
         result="fbSourceGraphicAlpha"
         in="fbSourceGraphic"
         values="0 0 0 -1 0 0 0 0 -1 0 0 0 0 -1 0 0 0 0 1 0"
         id="feColorMatrix2" />
      <feColorMatrix
         id="feColorMatrix3"
         values="-1 0 0 0 1 0 -1 0 0 1 0 0 -1 0 1 -0.21 -0.72 -0.07 2 0 "
         result="color2"
         in="fbSourceGraphic" />
    </filter>
  </defs>
  <sodipodi:namedview
     id="namedview338"
     pagecolor="#ffffff"
     bordercolor="#000000"
     borderopacity="0.25"
     inkscape:showpageshadow="2"
     inkscape:pageopacity="0.0"
     inkscape:pagecheckerboard="0"
     inkscape:deskcolor="#d1d1d1"
     showgrid="false"
     inkscape:zoom="2.0366667"
     inkscape:cx="300.24549"
     inkscape:cy="98.690669"
     inkscape:window-width="1366"
     inkscape:window-height="690"
     inkscape:window-x="0"
     inkscape:window-y="0"
     inkscape:window-maximized="1"
     inkscape:current-layer="svg336" />
  <g
     id="g22"
     transform="matrix(0.60837209,0,0,0.30341506,-59.143869,-30.390157)"
     style="filter:url(#filter1)">
    <defs
       id="defs5">
      <rect
         id="rect456"
         x="124.12"
         y="110.1"
         width="934.47998"
         height="611.52002" />
    </defs>
    <clipPath
       id="clipPath410">
      <use
         xlink:href="#SVGID_1_"
         style="overflow:visible"
         id="use408" />
    </clipPath>
    <g
       clip-path="url(#SVGID_00000150785495286499714270000009982772242062153606_)"
       id="g20">
      <path
         class="st1"
         d="m 269.4,583.07 c 0,0 -23.34,13.6 16.67,18.18 48.44,5.52 73.24,4.74 126.63,-5.37 0,0 14.06,8.8 33.7,16.41 -119.81,51.36 -271.08,-2.92 -177,-29.22 z m -14.64,-66.94 c 0,0 -26.2,19.38 13.8,23.54 51.78,5.37 92.67,5.78 163.4,-7.81 0,0 9.74,9.9 25.16,15.37 -144.7,42.29 -305.91,3.28 -202.36,-31.1 z"
         id="path10"
         style="fill:#5582a1" />
      <path
         class="st2"
         d="m 378.11,402.52 c 29.53,33.96 -7.76,64.54 -7.76,64.54 0,0 74.9,-38.65 40.53,-87.09 -32.14,-45.16 -56.78,-67.56 76.62,-144.91 -0.01,-0.05 -209.4,52.24 -109.39,167.46 z"
         id="path12"
         style="fill:#f49734" />
      <path
         class="st1"
         d="m 536.46,632.6 c 0,0 17.29,14.27 -19.06,25.26 -69.12,20.94 -287.64,27.24 -348.37,0.83 -21.83,-9.48 19.12,-22.66 31.98,-25.42 13.44,-2.92 21.1,-2.4 21.1,-2.4 -24.27,-17.09 -156.84,33.55 -67.35,48.08 244.13,39.6 444.99,-17.75 381.7,-46.35 z M 280.65,446.75 c 0,0 -111.16,26.41 -39.38,35.99 30.32,4.06 90.74,3.13 147.05,-1.61 45.99,-3.85 92.2,-12.14 92.2,-12.14 0,0 -16.2,6.98 -27.97,14.95 -112.88,29.69 -330.97,15.89 -268.15,-14.48 53.07,-25.63 96.25,-22.71 96.25,-22.71 z m 199.4,111.47 c 114.75,-59.59 61.67,-116.89 24.64,-109.18 -9.06,1.88 -13.13,3.54 -13.13,3.54 0,0 3.39,-5.26 9.79,-7.55 73.29,-25.73 129.6,75.95 -23.65,116.26 0.05,-0.1 1.82,-1.66 2.35,-3.07 z"
         id="path14"
         style="fill:#5582a1" />
      <path
         class="st2"
         d="m 410.87,110.1 c 0,0 63.55,63.6 -60.27,161.32 -99.28,78.45 -22.66,123.14 -0.05,174.24 C 292.57,393.36 250.07,347.32 278.56,304.5 320.44,241.57 436.5,211.05 410.87,110.1 Z"
         id="path16"
         style="fill:#f49734" />
      <path
         class="st1"
         d="m 291.9,719.8 c 110.12,7.03 279.3,-3.91 283.31,-56.05 0,0 -7.71,19.74 -91,35.42 -94.02,17.71 -209.97,15.63 -278.73,4.27 -0.05,0.06 14.07,11.67 86.42,16.36 z m 475.94,-89.33 c -10.37,9.01 -21.36,14.06 -31.2,14.06 -14.06,0 -21.67,-8.44 -21.67,-21.93 0,-14.64 8.18,-25.32 40.79,-25.32 h 12.08 z m 28.65,32.34 V 562.7 c 0,-25.58 -14.58,-42.45 -49.74,-42.45 -20.52,0 -38.49,5.05 -53.13,11.51 l 4.22,17.71 c 11.51,-4.22 26.41,-8.18 41.05,-8.18 20.26,0 28.96,8.18 28.96,25.05 V 579 h -10.11 c -49.22,0 -71.41,19.06 -71.41,47.82 0,24.74 14.64,38.81 42.19,38.81 17.71,0 30.94,-7.29 43.29,-18.02 l 2.24,15.21 h 22.44 z m 95.68,0 H 856.44 L 813.42,522.8 h 31.2 l 26.72,86.05 5.94,25.84 c 13.49,-37.4 23.02,-75.37 27.82,-111.89 h 30.37 c -8.14,46.1 -22.77,96.68 -43.3,140.01 z m 137.21,-32.34 c -10.42,9.01 -21.41,14.06 -31.25,14.06 -14.06,0 -21.67,-8.44 -21.67,-21.93 0,-14.64 8.18,-25.32 40.79,-25.32 h 12.08 z m 28.65,32.34 V 562.7 c 0,-25.58 -14.64,-42.45 -49.8,-42.45 -20.52,0 -38.55,5.05 -53.18,11.51 l 4.22,17.71 c 11.51,-4.22 26.46,-8.18 41.05,-8.18 20.26,0 28.96,8.18 28.96,25.05 V 579 h -10.11 c -49.22,0 -71.41,19.06 -71.41,47.82 0,24.74 14.64,38.81 42.19,38.81 17.71,0 30.94,-7.29 43.34,-18.02 l 2.24,15.21 h 22.5 z m -403.17,23.81 c -8.18,11.93 -21.36,21.41 -35.84,26.72 l -14.17,-16.67 c 10.99,-5.68 20.42,-14.74 24.79,-23.23 3.8,-7.55 5.37,-17.29 5.37,-40.53 V 473 h 30.47 v 157.67 c 0,31.1 -2.45,43.66 -10.62,55.95 z"
         id="path18"
         style="fill:#5582a1" />
    </g>
  </g>
</svg>
